<?xml version="1.0" standalone="no"?>
<!DOCTYPE svg PUBLIC "-//W3C//DTD SVG 20010904//EN"
 "http://www.w3.org/TR/2001/REC-SVG-20010904/DTD/svg10.dtd">
<svg version="1.0" xmlns="http://www.w3.org/2000/svg"
 width="372.000000pt" height="372.000000pt" viewBox="0 0 372.000000 372.000000"
 preserveAspectRatio="xMidYMid meet">
<metadata>
Created by potrace 1.14, written by Peter Selinger 2001-2017
</metadata>
<g transform="translate(0.000000,372.000000) scale(0.100000,-0.100000)"
fill="#000000" stroke="none">
<path d="M1155 3659 c-49 -11 -94 -50 -101 -89 -5 -21 -11 -28 -26 -25 -27 6
-43 -40 -29 -82 11 -30 10 -33 -56 -100 -38 -37 -84 -88 -103 -113 -83 -106
-278 -290 -309 -290 -6 0 -11 -4 -11 -9 0 -13 109 -18 122 -6 6 6 3 -2 -7 -17
-20 -32 -27 -36 -19 -10 5 16 5 16 -6 -1 -6 -9 -16 -14 -22 -11 -7 5 -8 2 -3
-6 6 -10 4 -12 -9 -7 -9 4 -15 3 -11 -2 3 -6 14 -9 25 -8 10 1 16 5 13 11 -3
5 -1 6 5 2 18 -11 14 -25 -5 -24 -74 2 -202 -51 -260 -108 -47 -46 -87 -121
-99 -184 -12 -68 -12 -153 0 -169 9 -12 8 -13 -4 -6 -12 7 -13 6 -2 -7 6 -8
13 -33 14 -56 1 -23 6 -40 12 -39 5 1 10 -15 10 -35 0 -39 11 -51 19 -20 3 9
4 5 4 -9 -1 -20 -5 -25 -16 -21 -14 5 -14 4 -1 -12 8 -10 26 -29 39 -42 21
-21 22 -24 5 -19 -17 6 -18 6 -1 -5 9 -6 15 -15 12 -20 -3 -4 1 -10 9 -13 9
-4 12 2 10 19 -1 13 1 22 5 19 13 -7 6 -46 -10 -56 -12 -7 -12 -9 1 -10 8 -1
20 -1 27 0 6 1 10 -9 8 -24 -1 -14 0 -24 2 -21 8 8 63 -15 63 -26 0 -6 -6 -5
-15 2 -13 11 -14 10 -9 -4 5 -13 13 -16 33 -11 24 6 24 5 8 -7 -18 -13 -18
-15 -1 -29 11 -8 15 -9 10 -1 -10 16 2 15 20 -2 11 -11 11 -16 1 -20 -6 -3 -1
-3 12 0 20 5 23 3 17 -11 -5 -15 -4 -16 8 -6 13 11 15 9 11 -8 -3 -15 0 -18
12 -14 12 5 14 3 8 -8 -7 -12 -6 -12 7 -1 13 10 18 10 24 1 4 -7 3 -9 -3 -6
-6 4 -13 1 -16 -6 -4 -10 2 -13 19 -9 22 4 29 -4 26 -29 -1 -4 4 -6 11 -6 35
1 57 -4 57 -14 0 -5 -5 -7 -12 -3 -7 4 -8 3 -4 -5 6 -9 11 -9 24 1 14 11 15
10 9 -6 -6 -16 -5 -17 7 -7 11 9 16 9 22 0 4 -8 3 -9 -4 -5 -7 4 -10 2 -7 -6
7 -17 55 -22 55 -6 0 6 3 8 6 5 4 -4 1 -14 -7 -24 -9 -11 -10 -14 -1 -9 7 4
12 2 12 -4 0 -6 5 -8 10 -5 6 4 8 10 6 14 -3 4 1 8 9 8 8 0 12 -4 10 -8 -4 -6
32 -22 47 -20 4 0 5 -8 3 -18 -3 -15 2 -18 21 -16 13 1 24 -1 24 -5 0 -7 33
-22 55 -24 6 -1 14 -7 18 -14 7 -11 11 -11 24 0 14 11 15 10 8 -12 l-8 -25 20
24 c15 18 20 20 20 8 0 -9 -3 -14 -7 -12 -4 2 -7 -3 -7 -12 0 -12 5 -10 20 8
l20 24 -6 -27 c-6 -21 -4 -26 11 -23 9 2 21 4 25 4 5 1 5 7 1 14 -5 8 -2 8 9
-2 18 -14 23 -26 8 -16 -5 3 -13 1 -16 -5 -4 -6 -3 -10 2 -9 20 3 34 -2 28
-11 -4 -6 1 -7 11 -3 13 5 15 3 9 -7 -5 -9 -4 -11 3 -6 7 4 18 4 24 -1 7 -4
22 -7 33 -8 11 0 19 -6 17 -13 -1 -8 2 -11 9 -6 6 3 15 0 20 -7 7 -12 9 -11 9
1 1 9 6 6 16 -10 l15 -25 -5 24 c-3 16 -2 21 5 14 6 -6 11 -19 12 -31 0 -11 4
-20 7 -19 9 3 130 -125 130 -137 0 -4 7 -5 16 -2 8 3 12 2 9 -4 -10 -16 24
-43 58 -45 47 -4 47 -4 47 -21 0 -9 5 -12 13 -8 7 5 6 0 -3 -11 -14 -17 -13
-18 2 -12 10 3 20 2 23 -4 4 -5 11 -6 17 -3 5 4 2 -5 -7 -20 -16 -24 -14 -31
8 -27 4 1 7 -7 5 -16 -2 -10 2 -18 9 -18 6 0 15 -4 20 -9 4 -5 3 -6 -4 -2 -25
14 -21 -13 7 -53 17 -22 30 -44 30 -49 0 -4 9 -14 20 -22 11 -8 20 -21 20 -30
0 -11 3 -12 8 -3 5 8 12 2 20 -17 8 -17 19 -27 27 -24 7 3 16 0 20 -5 3 -6 10
-9 15 -6 10 6 8 -15 -3 -32 -8 -12 -2 -17 17 -14 13 3 36 -20 36 -36 0 -18 25
-44 34 -36 3 4 6 1 6 -6 0 -7 5 -9 10 -6 6 3 10 -4 10 -17 1 -23 1 -23 16 -3
15 19 15 19 10 -6 -3 -21 0 -26 15 -25 11 1 24 8 29 16 5 8 10 10 10 4 0 -5
-5 -15 -12 -22 -9 -9 -9 -12 2 -13 8 -1 19 -1 24 0 5 1 3 -6 -5 -15 -13 -16
-12 -16 10 -4 21 11 23 10 18 -3 -7 -19 18 -43 28 -27 6 10 -1 14 -18 11 -5
-1 -5 4 -1 10 5 9 12 6 24 -9 10 -12 20 -18 24 -15 6 6 10 -13 6 -32 -1 -5 7
-2 17 6 32 28 49 33 25 7 -25 -27 -25 -27 46 -30 17 -1 32 -6 32 -12 0 -6 5
-4 11 4 9 13 10 13 6 0 -2 -8 -10 -14 -16 -12 -6 1 -11 -3 -11 -9 0 -8 -5 -8
-15 1 -8 7 -15 8 -15 3 0 -15 -33 -28 -180 -73 -148 -46 -203 -63 -450 -140
-91 -28 -203 -63 -250 -77 -47 -14 -132 -40 -190 -58 -58 -18 -152 -47 -210
-65 -58 -18 -123 -41 -145 -51 l-40 -20 45 7 c25 3 96 19 159 35 63 16 124 29
136 29 12 0 25 3 29 7 3 4 12 8 19 9 7 1 41 10 77 19 36 10 77 17 92 17 15 0
30 4 33 9 4 5 21 9 39 9 17 0 36 4 42 10 5 5 31 11 57 12 26 2 47 6 47 10 0 3
15 9 33 13 17 4 40 9 50 12 12 3 18 0 16 -9 -3 -28 2 -40 15 -35 7 3 19 0 26
-6 7 -7 10 -7 7 -2 -3 6 2 19 10 30 14 17 15 18 9 2 -5 -15 -2 -17 17 -11 30
9 34 14 19 23 -14 8 -6 41 10 41 6 0 5 -6 -2 -15 -10 -12 -9 -16 4 -21 10 -4
15 -13 12 -20 -3 -8 0 -11 9 -7 8 3 12 10 8 17 -4 6 -1 6 9 -2 13 -10 17 -10
22 3 4 11 2 14 -7 9 -9 -6 -9 -5 0 8 7 8 10 18 6 21 -11 12 -21 8 -25 -10 -3
-15 -5 -15 -10 3 -3 12 0 21 6 22 6 0 21 3 33 6 13 2 26 0 29 -6 4 -6 2 -8 -4
-4 -6 3 -13 2 -17 -4 -3 -5 0 -10 7 -10 10 0 10 -2 -1 -9 -9 -6 -10 -11 -2
-15 6 -4 8 -12 5 -18 -4 -7 -2 -8 5 -4 6 4 9 11 6 16 -3 5 -1 11 4 15 5 3 14
-3 20 -12 13 -23 14 -8 2 16 -7 13 -6 18 4 18 8 0 12 -4 9 -9 -3 -4 0 -8 5 -8
6 0 11 6 11 13 0 8 3 8 8 1 4 -5 17 -10 29 -10 16 0 19 4 12 12 -7 8 -6 15 2
20 7 4 9 3 6 -3 -4 -6 2 -13 13 -16 11 -3 22 -1 25 3 3 5 18 7 33 4 15 -2 23
-1 17 3 -5 5 -17 17 -25 28 -14 19 -14 19 6 3 28 -24 145 -13 129 12 -3 4 2
10 10 14 8 3 17 1 20 -4 3 -5 14 -8 25 -7 10 1 16 5 14 9 -3 5 -10 5 -16 2 -7
-4 -8 -2 -4 5 4 6 13 11 19 10 25 -3 38 1 32 11 -3 6 -1 10 4 10 16 0 14 -10
-6 -34 -16 -19 -16 -19 -1 -7 9 7 22 10 27 6 7 -4 8 0 4 11 -5 14 -3 15 17 4
12 -7 20 -8 16 -2 -3 5 1 15 9 22 8 7 12 16 9 21 -3 5 0 9 5 9 11 0 14 -11 12
-40 0 -10 1 -11 5 -2 3 6 11 9 16 6 6 -4 17 1 25 11 8 12 13 14 13 6 0 -11 3
-11 15 -1 8 7 22 9 31 6 13 -5 14 -3 6 6 -8 10 -1 13 33 13 30 0 41 3 38 12
-3 7 -1 13 5 13 6 0 12 -6 15 -12 2 -7 8 -10 12 -6 4 4 3 13 -3 21 -8 9 -8 17
0 27 8 12 9 12 4 -2 -12 -40 69 -40 101 -1 8 10 12 13 9 7 -7 -15 21 -27 29
-13 4 5 11 6 17 3 7 -4 8 -2 4 4 -4 7 -1 12 6 12 7 0 24 3 38 6 20 4 22 3 10
-5 -9 -7 -10 -11 -3 -11 6 0 14 4 18 9 3 6 14 8 24 6 15 -3 18 2 17 20 -2 16
1 22 10 18 7 -3 12 -8 11 -11 -3 -10 9 -11 33 -5 11 3 17 10 14 15 -4 6 4 5
16 -2 12 -7 20 -8 16 -2 -9 15 17 30 39 22 11 -4 30 -4 43 1 12 5 22 6 22 4 0
-3 8 3 18 13 10 9 17 24 14 32 -3 13 -3 13 6 0 8 -10 7 -19 -1 -29 -10 -12 -9
-13 9 -3 12 6 25 8 30 4 5 -4 2 1 -5 11 -8 9 -11 20 -7 24 3 3 6 1 6 -5 0 -7
5 -12 11 -12 5 0 7 5 3 11 -5 8 -1 8 13 0 14 -7 24 -7 33 2 10 10 12 8 7 -6
-4 -11 -3 -16 3 -12 6 3 10 13 10 21 0 8 5 14 11 14 5 0 7 -5 4 -10 -3 -6 1
-10 10 -10 10 0 15 6 12 13 -3 8 1 14 9 14 7 0 10 -5 7 -11 -3 -6 -3 -8 2 -4
4 4 15 2 24 -5 12 -9 11 -5 -3 18 -10 17 -15 27 -11 23 5 -4 15 -2 24 5 14 10
14 10 3 -5 -9 -11 -10 -18 -2 -23 5 -3 10 -1 10 6 0 8 4 8 13 1 8 -7 18 -7 27
-2 8 5 18 6 24 3 5 -3 6 -1 2 5 -5 8 -13 9 -25 3 -13 -7 -18 -6 -18 3 0 7 10
11 21 10 12 -1 31 -3 44 -3 15 -1 21 -5 16 -13 -4 -7 -3 -8 5 -4 6 4 9 12 6
17 -4 5 -1 9 6 9 7 0 8 5 3 13 -5 7 -2 5 8 -5 21 -23 31 -23 19 0 -7 14 -6 19
4 19 8 0 12 -4 10 -8 -3 -4 2 -10 11 -13 11 -4 15 -2 11 7 -3 8 1 14 9 14 7 0
11 -4 8 -8 -2 -4 1 -11 7 -15 7 -4 9 -3 6 2 -3 6 -2 16 3 24 5 8 5 19 0 25 -6
8 -5 12 4 12 8 0 13 -8 11 -18 -2 -10 1 -22 7 -25 6 -4 8 -2 4 4 -3 6 -2 14 4
17 8 5 8 11 1 19 -6 7 -7 17 -3 21 4 5 1 5 -7 0 -10 -6 -12 -4 -5 6 32 51 9
111 -74 193 -62 63 -294 227 -362 258 -16 7 -30 16 -30 20 0 5 -7 8 -15 8 -8
0 -15 5 -15 10 0 6 -3 9 -7 8 -12 -2 -63 24 -63 32 0 4 -8 10 -17 14 -18 6
-74 38 -110 63 -116 81 -474 313 -482 313 -6 0 -11 4 -11 8 0 5 -10 14 -22 21
-13 6 -36 20 -53 31 -16 11 -40 25 -52 31 -13 7 -23 16 -23 21 0 4 -7 8 -15 8
-8 0 -15 5 -15 10 0 6 -5 10 -10 10 -13 0 -321 205 -405 269 -107 81 -171 138
-335 298 -129 126 -142 138 -205 188 -158 126 -369 225 -481 225 -27 0 -31 3
-31 29 0 22 3 26 13 17 6 -6 10 -14 8 -18 -5 -8 21 -4 50 8 13 5 17 4 12 -4
-3 -6 -2 -13 3 -16 4 -3 8 4 7 17 -1 16 5 22 19 22 11 0 27 4 35 10 13 8 13 7
0 -10 -14 -17 -13 -18 2 -12 13 4 15 2 11 -10 -4 -10 -2 -14 4 -10 6 4 14 1
17 -5 3 -7 3 1 0 17 -4 28 -4 29 7 8 13 -26 22 -28 50 -13 18 10 25 3 20 -23
-1 -5 3 -6 9 -2 6 3 8 10 5 15 -3 5 0 12 6 16 8 4 9 3 5 -4 -4 -7 -2 -12 4
-12 6 0 9 -4 6 -8 -2 -4 5 -9 17 -9 17 -2 19 0 7 7 -13 8 -12 10 3 10 9 0 17
-5 17 -11 0 -7 10 -9 25 -7 14 3 28 1 32 -5 3 -5 2 -7 -3 -4 -6 3 -16 2 -24
-4 -11 -6 -5 -8 18 -5 21 2 32 -1 32 -10 0 -7 8 -11 20 -9 11 2 26 -2 34 -10
7 -8 16 -11 20 -8 3 4 6 -1 6 -10 0 -9 4 -19 10 -22 6 -3 7 1 4 9 -4 11 0 16
11 16 9 0 13 -4 10 -10 -3 -5 -1 -10 5 -10 6 0 8 -5 5 -10 -4 -6 -3 -10 2 -9
21 4 34 -2 27 -13 -4 -6 -3 -8 4 -4 5 3 25 -6 43 -21 18 -16 30 -22 25 -15 -9
16 14 15 35 -1 9 -7 18 -21 21 -32 2 -13 10 -19 22 -17 13 2 16 -1 10 -10 -6
-10 -4 -10 9 1 19 15 24 2 6 -16 -8 -8 -7 -13 2 -18 7 -5 10 -4 6 1 -3 5 6 15
20 21 25 12 25 12 8 -7 -17 -19 -17 -19 5 -15 13 2 20 2 17 -2 -4 -3 -2 -14 3
-24 7 -11 6 -19 0 -22 -6 -3 -5 -4 2 -3 7 2 12 12 10 24 -2 11 1 23 7 26 5 3
7 -2 4 -12 -6 -23 32 -66 52 -58 8 3 15 3 15 0 0 -2 -10 -9 -22 -14 -22 -8
-22 -9 6 -9 22 -1 27 -5 22 -17 -5 -12 -2 -15 10 -10 12 5 14 1 9 -17 -5 -17
-4 -19 4 -7 9 13 11 12 11 -3 0 -10 5 -15 10 -12 6 4 7 11 4 17 -4 7 -2 8 5 4
6 -4 9 -12 5 -17 -7 -12 23 -59 38 -59 7 0 2 9 -10 20 -24 22 -31 40 -9 21 8
-6 17 -7 21 -3 4 4 6 0 4 -8 -2 -10 3 -14 16 -12 18 3 18 2 2 -13 -21 -22 -21
-31 1 -14 10 9 14 9 10 2 -5 -7 3 -18 20 -28 22 -13 23 -15 6 -10 -13 4 -23 2
-23 -3 0 -6 13 -9 30 -8 16 1 27 0 25 -3 -3 -2 5 -15 17 -28 17 -19 24 -21 37
-10 14 10 14 10 3 -4 -10 -14 -10 -18 4 -23 9 -3 20 -4 24 -1 5 3 11 1 14 -4
10 -16 -44 -4 -64 14 -11 10 -23 16 -26 13 -3 -4 8 -14 25 -24 17 -10 31 -22
31 -27 0 -4 4 -5 10 -2 5 3 10 -1 10 -9 0 -9 5 -16 11 -16 5 0 7 5 3 12 -4 7
-3 8 4 4 6 -4 9 -13 6 -21 -5 -12 1 -14 25 -11 18 2 29 1 27 -2 -3 -3 2 -11
12 -19 12 -10 8 -9 -15 2 -19 9 -33 11 -33 5 0 -5 5 -10 11 -10 5 0 7 -4 4
-10 -4 -6 1 -7 11 -3 11 4 15 3 11 -4 -8 -13 11 -12 32 1 8 5 6 -2 -5 -19 -18
-28 -18 -28 3 -16 29 15 38 14 24 -2 -17 -21 6 -39 33 -25 12 6 18 7 14 3 -4
-5 -3 -14 3 -22 10 -11 15 -11 27 -1 14 12 14 10 1 -11 -11 -18 -11 -25 -1
-28 6 -3 9 -10 6 -15 -4 -7 -2 -8 5 -4 6 4 19 2 28 -6 15 -11 16 -11 10 5 -9
23 0 22 13 -2 7 -14 7 -22 -2 -27 -7 -4 -8 -3 -4 4 5 8 2 10 -9 6 -19 -8 -14
-14 12 -18 10 -2 21 2 25 8 5 6 8 2 8 -11 0 -13 6 -23 14 -23 8 0 16 -5 18
-12 2 -6 18 -11 35 -11 l31 0 -21 -19 c-12 -11 -16 -17 -9 -13 6 3 12 1 12 -4
0 -13 22 -10 32 4 5 6 8 6 8 -2 0 -6 -4 -15 -10 -18 -13 -8 -13 -25 1 -25 5 0
7 5 4 10 -3 6 -2 10 4 10 5 0 13 -9 16 -21 6 -17 9 -18 23 -7 12 10 14 10 8 1
-4 -7 -2 -13 3 -13 6 0 11 -5 11 -11 0 -5 -6 -7 -12 -3 -7 4 -9 3 -5 -1 12
-14 38 -15 30 -2 -4 7 0 6 9 -1 9 -8 14 -21 11 -30 -4 -15 -3 -15 6 -2 10 13
14 12 30 -7 10 -12 21 -19 25 -16 3 4 6 -3 6 -14 0 -12 6 -23 14 -26 17 -7 39
16 28 28 -4 5 -1 5 6 0 10 -5 11 -10 3 -18 -18 -18 -13 -31 23 -54 26 -17 36
-19 46 -10 10 9 11 9 6 0 -4 -7 -2 -13 3 -13 6 0 11 -10 12 -22 0 -22 1 -22 9
-3 5 11 9 14 9 7 1 -19 24 -39 39 -34 6 2 10 -2 9 -10 -2 -7 -2 -10 0 -5 3 4
9 7 14 7 6 0 7 -4 4 -10 -3 -5 -1 -10 5 -10 6 0 9 -4 6 -8 -3 -5 7 -9 22 -10
35 -1 60 -7 68 -15 8 -7 -31 -1 -45 8 -5 3 -13 0 -17 -6 -4 -7 -3 -9 4 -5 6 3
16 0 24 -7 7 -8 19 -12 26 -9 8 2 10 -3 6 -15 -6 -16 -5 -16 9 2 8 11 13 24
10 29 -4 5 -1 6 6 2 6 -4 8 -13 4 -19 -14 -22 -11 -35 7 -30 12 3 19 -3 23
-18 4 -13 9 -20 13 -16 4 3 21 0 38 -7 17 -7 39 -12 49 -10 9 1 15 -2 11 -7
-3 -5 -10 -7 -15 -4 -5 4 -9 1 -9 -4 0 -6 7 -11 16 -11 8 0 12 -4 9 -10 -3 -6
1 -7 9 -4 9 4 18 -1 22 -10 3 -9 10 -13 15 -10 5 3 12 -2 15 -11 5 -12 9 -13
20 -4 12 10 12 15 -1 35 -8 13 -15 27 -15 31 0 4 5 0 11 -10 6 -9 14 -15 19
-12 5 3 12 0 16 -6 5 -8 3 -9 -6 -4 -8 5 -11 3 -8 -6 3 -8 1 -22 -4 -33 -7
-12 -7 -16 0 -12 6 3 12 0 15 -6 3 -10 8 -9 22 2 17 14 18 13 12 -2 -4 -12 1
-21 16 -28 21 -11 21 -11 3 4 -23 18 -14 21 15 6 16 -9 18 -8 16 7 -4 27 -17
44 -28 37 -5 -3 -16 0 -24 6 -15 12 -21 3 -16 -23 1 -5 -3 -6 -8 -2 -7 4 -6
15 1 31 8 18 14 21 20 12 4 -7 8 -10 8 -5 0 11 60 -22 60 -33 0 -5 8 -6 17 -3
13 5 15 2 10 -12 -6 -14 -5 -16 6 -7 8 7 17 8 21 4 7 -7 11 -8 37 -11 5 0 7
-6 3 -13 -4 -7 -3 -8 5 -4 6 4 17 3 24 -2 11 -10 18 -12 34 -12 3 0 -1 -8 -10
-18 -10 -10 -14 -22 -10 -25 3 -4 1 -7 -6 -7 -7 0 -10 10 -7 25 4 21 1 25 -20
25 -13 0 -24 4 -24 8 0 5 -6 9 -12 9 -7 0 -19 2 -27 4 -7 2 -15 -4 -16 -13 -2
-10 1 -18 6 -18 6 0 7 -5 3 -12 -4 -7 -3 -8 4 -4 6 4 10 12 8 19 -1 7 -1 9 1
4 3 -4 8 -5 13 -2 4 3 14 -3 21 -13 13 -15 12 -16 -3 -3 -10 7 -18 9 -18 3 0
-18 29 -21 40 -4 9 14 11 14 7 1 -3 -9 7 -27 22 -41 23 -22 27 -23 27 -8 0 10
-5 16 -10 13 -5 -3 -6 -1 -2 6 6 9 11 9 22 0 11 -9 14 -9 14 0 0 7 5 9 11 5 8
-4 7 -9 -2 -15 -7 -4 -17 -5 -23 -2 -5 3 -6 1 -3 -4 4 -6 18 -10 32 -10 13 -1
22 3 19 8 -3 5 3 6 12 2 11 -4 13 -8 6 -11 -19 -6 -14 -18 8 -19 11 -1 18 2
15 7 -3 6 1 7 9 4 18 -7 21 -20 6 -29 -15 -9 -2 -25 14 -19 8 3 17 0 22 -7 5
-8 3 -10 -7 -4 -8 5 -11 5 -7 0 4 -4 3 -13 -2 -20 -7 -8 -5 -12 5 -12 8 0 12
4 9 9 -3 4 0 8 7 8 6 0 9 -8 6 -19 -6 -23 7 -48 17 -32 4 6 3 11 -3 11 -6 0
-7 8 -4 17 6 15 7 14 13 -3 4 -10 3 -28 -3 -39 -9 -18 -9 -19 6 -6 19 15 24 2
6 -16 -7 -7 -3 -10 15 -8 14 2 26 -1 26 -7 0 -6 -7 -8 -15 -5 -8 4 -17 2 -20
-4 -4 -5 -3 -9 2 -8 19 3 34 -2 29 -9 -3 -5 0 -9 7 -9 8 0 12 20 12 61 0 50
-7 76 -38 140 -56 118 -120 192 -327 378 -309 278 -425 421 -583 718 -56 106
-178 404 -182 445 -2 20 -27 70 -38 77 -7 5 -25 5 -42 2 -29 -6 -29 -5 -10 11
11 9 15 14 8 11 -6 -4 -15 -2 -18 4 -4 6 -3 10 2 9 18 -3 33 2 33 11 0 5 -8 6
-17 3 -16 -6 -16 -5 -5 10 8 8 21 13 30 10 12 -3 13 -2 4 4 -13 10 -12 47 3
60 4 5 5 2 0 -6 -6 -10 -4 -12 4 -6 9 5 10 10 2 18 -7 7 -5 15 7 24 9 8 11 12
5 8 -8 -4 -13 0 -13 9 0 9 3 16 8 16 4 0 6 42 5 92 -1 75 -7 104 -27 150 -31
70 -83 129 -139 158 -39 20 -41 21 -24 3 22 -25 22 -28 -4 -30 -11 -1 -43 14
-71 34 -44 32 -58 37 -112 37 -33 1 -77 -6 -96 -13 -51 -21 -131 -74 -165
-109 -16 -17 -34 -32 -40 -32 -5 0 -20 15 -33 33 -40 60 -166 181 -237 229
-102 68 -194 94 -270 77z m97 -234 c12 -14 32 -25 47 -25 18 0 31 -9 43 -30 9
-17 25 -30 34 -30 9 0 27 -10 40 -22 13 -13 31 -30 39 -38 67 -64 155 -193
155 -226 0 -12 7 -24 15 -27 19 -8 75 -120 75 -151 0 -14 5 -28 10 -31 6 -3
10 -17 10 -30 0 -15 11 -32 31 -46 19 -13 42 -47 60 -87 26 -58 69 -107 93
-107 5 0 17 13 26 29 14 27 45 52 90 73 8 4 31 24 51 45 20 21 42 38 49 38 10
0 10 -3 -1 -16 -10 -13 -10 -17 2 -25 8 -5 22 -9 32 -9 9 0 17 -5 17 -11 0 -5
6 -7 13 -3 8 5 7 2 -2 -9 -7 -10 -20 -16 -29 -15 -9 2 -16 -6 -17 -21 -2 -22
-1 -23 12 -6 7 11 13 15 13 11 0 -5 8 -2 17 5 10 8 14 9 10 2 -4 -6 -2 -15 4
-19 7 -4 9 -3 6 3 -4 6 0 19 8 29 14 17 14 17 9 1 -4 -12 -2 -17 7 -15 8 2 13
-3 11 -10 -1 -8 2 -11 8 -7 6 3 7 11 4 17 -5 7 -1 9 9 5 12 -4 17 -1 17 11 1
16 1 16 11 0 5 -9 16 -15 24 -12 8 4 12 11 8 17 -3 6 -1 7 5 3 7 -4 12 -1 13
6 0 7 5 2 11 -12 6 -14 10 -32 9 -41 -1 -9 5 -19 14 -22 17 -7 21 -27 4 -27
-5 0 -8 4 -5 8 3 5 -2 9 -11 9 -12 0 -9 -6 10 -23 25 -21 38 -42 19 -30 -5 3
-9 -1 -9 -9 0 -8 5 -13 11 -12 6 1 10 -6 8 -17 -2 -13 1 -16 10 -10 9 5 8 2
-2 -11 -14 -17 -13 -18 4 -12 14 6 17 4 12 -8 -3 -8 -1 -15 5 -15 6 0 7 -5 4
-10 -4 -6 -11 -8 -16 -5 -17 11 -9 -2 13 -21 22 -19 23 -19 8 1 -14 18 -14 19
1 7 10 -8 16 -25 15 -43 -1 -18 4 -33 12 -38 9 -5 12 -15 8 -26 -5 -13 -2 -16
11 -11 10 4 14 4 11 0 -4 -4 -3 -16 3 -27 9 -15 8 -18 -3 -12 -10 6 -10 5 -1
-5 6 -7 10 -18 9 -24 -2 -6 -1 -7 2 -3 2 4 13 -2 23 -14 22 -26 22 -26 7 -35
-6 -4 -8 -3 -4 4 3 6 2 13 -3 16 -14 9 -7 -22 9 -37 7 -6 10 -7 7 -1 -3 6 -1
11 6 11 7 0 13 -8 13 -18 0 -10 -4 -15 -8 -13 -4 3 -5 -2 -2 -10 3 -9 12 -16
20 -16 8 0 11 -6 7 -17 -4 -10 -2 -14 4 -10 6 4 14 0 17 -9 3 -8 11 -12 17 -8
7 4 9 3 5 -4 -3 -6 -2 -14 4 -17 8 -5 7 -12 -2 -22 -11 -14 -10 -15 12 -9 22
6 22 5 7 -4 -18 -11 -18 -13 -1 -31 11 -13 24 -17 38 -13 20 6 20 6 2 -8 -13
-11 -16 -17 -7 -22 6 -4 8 -13 5 -19 -4 -8 -2 -7 7 1 12 11 12 14 -1 23 -13 9
-13 10 0 6 9 -2 14 -14 13 -28 -3 -22 -2 -23 11 -6 12 16 14 16 20 2 3 -9 2
-14 -2 -11 -4 3 -14 -4 -21 -16 -7 -11 -8 -17 -2 -14 5 4 12 2 16 -3 3 -5 14
-8 25 -6 11 2 19 -1 17 -8 -1 -6 4 -11 12 -12 18 0 26 -21 12 -30 -6 -3 -11
-11 -11 -18 0 -8 3 -8 12 1 7 7 17 12 23 12 5 0 3 -5 -5 -10 -10 -6 -11 -10
-2 -10 6 0 12 -9 12 -20 0 -11 5 -20 11 -20 5 0 8 4 5 9 -4 5 4 7 16 3 l22 -5
-22 -8 c-26 -10 -27 -15 -6 -23 10 -4 13 -2 8 7 -5 8 -2 7 9 -2 16 -13 16 -14
0 -27 -16 -12 -16 -12 6 -7 17 4 22 3 17 -5 -4 -8 -2 -10 8 -6 8 3 13 14 11
26 -3 11 -1 17 3 14 4 -4 8 -16 8 -27 1 -10 3 -21 4 -24 3 -6 7 -22 9 -35 0
-5 10 -10 22 -10 11 0 17 -5 14 -10 -6 -9 8 -14 28 -11 10 1 9 -7 -3 -30 -10
-17 -8 -18 15 -9 33 13 45 12 23 -1 -21 -12 -13 -40 9 -32 12 5 14 3 8 -7 -5
-8 -4 -11 2 -7 6 4 14 0 17 -9 3 -8 10 -12 16 -9 6 3 7 -1 4 -9 -10 -25 5 -19
17 7 9 22 10 22 5 0 -2 -13 4 -29 15 -39 15 -13 19 -14 19 -3 1 10 4 9 11 -4
6 -9 14 -15 18 -13 4 3 8 -1 8 -9 0 -13 -4 -12 -19 2 -10 9 -18 12 -18 8 0 -4
-8 -1 -17 7 -10 8 -25 18 -34 21 -49 17 -461 307 -594 418 -11 9 -58 47 -105
85 -188 150 -356 304 -576 526 -328 332 -458 432 -654 502 -62 23 -223 55
-280 56 -11 1 -10 4 4 15 23 18 14 20 -17 4 -22 -11 -22 -11 1 10 12 12 26 19
32 16 5 -3 7 3 5 14 -2 13 1 18 10 15 7 -3 16 0 21 7 4 7 3 10 -4 5 -6 -3 -13
-2 -16 3 -4 5 5 8 20 6 18 -2 24 1 20 11 -19 45 -18 48 3 24 21 -23 21 -23 11
-2 -9 18 -8 22 5 22 10 0 13 -5 9 -12 -4 -7 -3 -8 5 -4 9 6 9 12 -1 24 -7 10
-9 14 -4 10 4 -3 16 2 27 13 11 11 24 17 29 14 15 -10 22 15 8 32 -11 14 -8
13 15 -1 15 -10 28 -16 28 -12 1 3 3 11 4 16 1 6 3 15 4 20 0 6 5 10 11 10 5
0 7 -7 3 -16 -6 -15 -4 -15 19 0 23 15 27 15 41 1 14 -14 16 -13 22 5 4 11 11
17 17 14 6 -4 5 -10 -3 -16 -11 -7 -11 -11 -1 -15 6 -2 9 -9 6 -15 -4 -6 1 -6
13 1 14 7 24 7 34 -2 7 -7 5 -1 -6 13 -21 27 -40 42 -51 40 -4 -1 -11 4 -16
12 -8 10 -9 9 -4 -4 3 -12 1 -15 -10 -11 -7 3 -14 9 -14 13 0 4 -9 10 -20 13
-11 3 -20 1 -20 -3 0 -5 8 -11 18 -13 13 -4 11 -5 -5 -6 -21 -1 -27 7 -20 27
3 11 89 1 120 -15 16 -8 36 -13 45 -11 13 3 7 15 -29 51 -36 36 -42 47 -28 47
11 0 29 -11 41 -25z m-162 -65 c0 -5 -4 -10 -10 -10 -5 0 -10 5 -10 10 0 6 5
10 10 10 6 0 10 -4 10 -10z m-35 -11 c-4 -5 1 -20 12 -31 l18 -22 -27 20 c-19
14 -23 22 -16 32 13 15 22 16 13 1z m170 -29 c3 -5 1 -10 -4 -10 -6 0 -11 5
-11 10 0 6 2 10 4 10 3 0 8 -4 11 -10z m-185 -36 c0 -2 -8 0 -19 5 -10 6 -22
7 -26 3 -5 -4 -5 -1 -1 6 5 9 12 9 27 2 10 -6 19 -13 19 -16z m-250 -324 c0
-5 -5 -10 -11 -10 -5 0 -7 5 -4 10 3 6 8 10 11 10 2 0 4 -4 4 -10z m135 -28
c-3 -3 -11 0 -18 7 -9 10 -8 11 6 5 10 -3 15 -9 12 -12z m42 3 c0 -8 -4 -12
-9 -9 -5 3 -6 10 -3 15 9 13 12 11 12 -6z m-237 -15 c0 -5 -4 -10 -10 -10 -5
0 -10 5 -10 10 0 6 5 10 10 10 6 0 10 -4 10 -10z m270 6 c0 -2 -8 -10 -17 -17
-16 -13 -17 -12 -4 4 13 16 21 21 21 13z m-90 -10 c0 -2 -7 -7 -16 -10 -8 -3
-12 -2 -9 4 6 10 25 14 25 6z m-247 -12 c9 -10 -4 -34 -19 -34 -8 0 -14 6 -14
13 0 22 19 35 33 21z m387 -2 c0 -5 -7 -9 -15 -9 -8 0 -12 4 -9 9 3 4 9 8 15
8 5 0 9 -4 9 -8z m131 -69 c13 -15 12 -15 -8 -4 -24 12 -29 21 -14 21 5 0 15
-7 22 -17z m65 -43 c8 0 14 -5 14 -10 0 -7 -6 -7 -20 0 -11 6 -20 16 -19 23 0
9 2 9 6 0 2 -7 11 -13 19 -13z m64 -57 c0 -3 -9 2 -20 12 -11 10 -20 22 -20
27 0 4 9 -1 20 -12 11 -11 20 -23 20 -27z m1020 -10 c0 -3 -7 -2 -16 1 -12 4
-15 2 -11 -9 4 -8 1 -17 -5 -21 -7 -5 -8 -3 -4 5 5 8 2 11 -9 9 -10 -2 -20 4
-22 12 -4 12 -2 12 5 2 7 -10 11 -10 21 2 11 13 41 12 41 -1z m-931 -39 c-6
-8 -15 -12 -18 -8 -3 4 0 9 7 11 6 3 9 10 6 15 -4 7 -2 8 5 4 9 -6 9 -11 0
-22z m161 -100 c0 -8 -19 -13 -24 -6 -3 5 1 9 9 9 8 0 15 -2 15 -3z m470 -440
c0 -8 -19 -13 -24 -6 -3 5 1 9 9 9 8 0 15 -2 15 -3z m-1626 -42 c3 -5 -1 -9
-9 -9 -8 0 -12 4 -9 9 3 4 7 8 9 8 2 0 6 -4 9 -8z m1686 -44 c0 -4 -4 -8 -9
-8 -6 0 -12 4 -15 8 -3 5 1 9 9 9 8 0 15 -4 15 -9z m572 -45 c-6 -3 -9 -10 -5
-16 4 -7 -1 -6 -10 2 -21 17 -21 17 6 18 12 0 16 -1 9 -4z m-477 -12 c3 -5 2
-12 -3 -15 -5 -3 -9 1 -9 9 0 17 3 19 12 6z m118 -111 c-3 -12 -8 -19 -11 -16
-5 6 5 36 12 36 2 0 2 -9 -1 -20z m437 14 c0 -8 -19 -13 -24 -6 -3 5 1 9 9 9
8 0 15 -2 15 -3z m-393 -39 c0 -8 -4 -12 -9 -9 -5 3 -6 10 -3 15 9 13 12 11
12 -6z m-1683 -24 c-2 -3 -12 3 -22 13 -16 17 -16 18 5 5 12 -7 20 -15 17 -18z
m66 -2 c0 -5 -4 -9 -8 -9 -5 0 -9 7 -9 15 0 8 4 12 9 9 4 -3 8 -9 8 -15z
m1727 -84 c0 -8 -4 -12 -9 -9 -5 3 -6 10 -3 15 9 13 12 11 12 -6z m-1552 -24
c3 -5 2 -12 -3 -15 -5 -3 -9 1 -9 9 0 17 3 19 12 6z m1633 -24 c10 1 11 0 4
-3 -6 -3 -9 -10 -6 -16 4 -6 -7 0 -24 12 -17 13 -28 28 -25 33 3 6 12 2 20 -9
8 -10 22 -18 31 -17z m-1597 0 c-10 -9 -11 -8 -5 6 3 10 9 15 12 12 3 -3 0
-11 -7 -18z m32 -12 c-3 -9 -8 -14 -10 -11 -3 3 -2 9 2 15 9 16 15 13 8 -4z
m34 0 c0 -8 -4 -12 -9 -9 -5 3 -6 10 -3 15 9 13 12 11 12 -6z m1936 -20 c-7
-21 -12 -19 -10 4 0 11 5 18 9 15 4 -3 5 -11 1 -19z m-343 9 c0 -8 -19 -13
-24 -6 -3 5 1 9 9 9 8 0 15 -2 15 -3z m-1450 -24 c0 -5 -5 -10 -11 -10 -5 0
-7 5 -4 10 3 6 8 10 11 10 2 0 4 -4 4 -10z m1476 -2 c4 -7 3 -8 -4 -4 -7 4
-12 3 -12 -3 0 -5 6 -12 13 -14 9 -4 9 -6 0 -6 -15 -1 -26 16 -18 29 8 13 12
13 21 -2z m-1442 -24 c3 -8 2 -12 -4 -9 -6 3 -10 10 -10 16 0 14 7 11 14 -7z
m1527 -31 c13 -16 12 -17 -3 -4 -17 13 -22 21 -14 21 2 0 10 -8 17 -17z
m-1531 -3 c0 -5 -7 -7 -15 -4 -8 4 -15 8 -15 10 0 2 7 4 15 4 8 0 15 -4 15
-10z m1508 -15 c-3 -3 -9 2 -12 12 -6 14 -5 15 5 6 7 -7 10 -15 7 -18z m-1478
-5 c0 -5 -2 -10 -4 -10 -3 0 -8 5 -11 10 -3 6 -1 10 4 10 6 0 11 -4 11 -10z
m85 0 c3 -6 -1 -7 -9 -4 -18 7 -21 14 -7 14 6 0 13 -4 16 -10z m1772 -22 c2
-17 0 -19 -7 -8 -5 8 -6 18 -4 22 8 12 10 10 11 -14z m-1697 -13 c14 -19 14
-19 -2 -6 -10 7 -18 18 -18 24 0 6 1 8 3 6 1 -2 9 -13 17 -24z m-22 -27 c-2
-7 7 -12 19 -13 12 0 24 -3 27 -6 9 -9 -37 -5 -51 4 -15 10 -17 27 -3 27 6 0
9 -5 8 -12z m1479 -30 c-3 -8 -6 -5 -6 6 -1 11 2 17 5 13 3 -3 4 -12 1 -19z
m118 -16 c-3 -3 -11 0 -18 7 -9 10 -8 11 6 5 10 -3 15 -9 12 -12z m15 -22 c-6
-11 -13 -20 -16 -20 -2 0 0 9 6 20 6 11 13 20 16 20 2 0 0 -9 -6 -20z m30 -42
c10 -21 10 -21 -3 -6 -8 10 -18 14 -22 10 -5 -4 -5 -1 -1 6 10 17 14 15 26
-10z m-1463 -83 c0 -8 -4 -12 -9 -9 -5 3 -6 10 -3 15 9 13 12 11 12 -6z m133
-109 c0 -2 -7 -7 -16 -10 -8 -3 -12 -2 -9 4 6 10 25 14 25 6z m24 -34 c2 -4
-4 -8 -14 -8 -10 0 -16 4 -14 8 3 4 9 8 14 8 5 0 11 -4 14 -8z m223 -294 c2
-17 0 -19 -7 -8 -5 8 -6 18 -4 22 8 12 10 10 11 -14z m18 -46 c-3 -3 -11 0
-18 7 -9 10 -8 11 6 5 10 -3 15 -9 12 -12z m163 -87 c-3 -3 -9 2 -12 12 -6 14
-5 15 5 6 7 -7 10 -15 7 -18z m42 -9 c0 -2 -7 -7 -16 -10 -8 -3 -12 -2 -9 4 6
10 25 14 25 6z m1014 -32 c3 -8 2 -12 -4 -9 -6 3 -10 10 -10 16 0 14 7 11 14
-7z m66 12 c0 -2 -7 -7 -16 -10 -8 -3 -12 -2 -9 4 6 10 25 14 25 6z m-997 -60
c4 -11 0 -13 -15 -11 -11 3 -23 7 -27 11 -3 4 2 4 12 1 9 -4 17 -2 17 3 0 15
7 12 13 -4z m754 -3 c-4 -3 -1 -13 6 -22 11 -14 10 -14 -5 -2 -16 12 -16 31
-1 31 4 0 3 -3 0 -7z m37 -9 c3 -8 2 -12 -4 -9 -6 3 -10 10 -10 16 0 14 7 11
14 -7z m26 6 c0 -5 -2 -10 -4 -10 -3 0 -8 5 -11 10 -3 6 -1 10 4 10 6 0 11 -4
11 -10z m-126 -18 c3 -5 -1 -9 -9 -9 -8 0 -12 4 -9 9 3 4 7 8 9 8 2 0 6 -4 9
-8z m-34 -26 c0 -2 -8 -10 -17 -17 -16 -13 -17 -12 -4 4 13 16 21 21 21 13z
m-180 -18 c0 -4 -4 -8 -9 -8 -6 0 -12 4 -15 8 -3 5 1 9 9 9 8 0 15 -4 15 -9z
m113 -1 c7 3 8 2 4 -2 -14 -16 -36 -14 -29 3 4 10 7 12 10 4 2 -7 9 -9 15 -5z
m-298 -36 c3 -5 2 -12 -3 -15 -5 -3 -9 1 -9 9 0 17 3 19 12 6z m125 -5 c0 -2
-7 -7 -16 -10 -8 -3 -12 -2 -9 4 6 10 25 14 25 6z m-40 -12 c0 -8 -19 -13 -24
-6 -3 5 1 9 9 9 8 0 15 -2 15 -3z m-116 -26 c-3 -4 -9 -8 -15 -8 -5 0 -9 4 -9
8 0 5 7 9 15 9 8 0 12 -4 9 -9z m-184 -23 c-6 -8 -8 -20 -4 -27 5 -10 4 -10
-6 -1 -11 10 -11 15 0 28 7 8 15 15 17 15 3 0 0 -7 -7 -15z m82 -7 c-2 -10 -9
-18 -15 -18 -6 0 -7 3 -4 7 4 3 3 11 -3 17 -6 8 -3 12 9 12 12 0 17 -6 13 -18z
m48 16 c0 -8 -19 -13 -24 -6 -3 5 1 9 9 9 8 0 15 -2 15 -3z m-215 -23 c3 -5 2
-12 -3 -15 -5 -3 -9 1 -9 9 0 17 3 19 12 6z m-140 -49 c-3 -3 -11 0 -18 7 -9
10 -8 11 6 5 10 -3 15 -9 12 -12z m-90 -12 c3 -6 -1 -7 -9 -4 -18 7 -21 14 -7
14 6 0 13 -4 16 -10z m141 -2 c5 4 6 3 1 -2 -11 -14 -45 -18 -52 -6 -4 6 1 7
11 3 13 -5 15 -3 9 8 -7 11 -6 12 7 2 8 -7 19 -9 24 -5z m-249 -30 c-3 -8 -6
-5 -6 6 -1 11 2 17 5 13 3 -3 4 -12 1 -19z m93 7 c19 -22 8 -25 -12 -3 -10 10
-14 18 -9 18 5 0 14 -7 21 -15z m-260 -44 c0 -5 -8 -8 -17 -7 -10 0 -18 -6
-18 -14 0 -8 -8 -16 -17 -18 -10 -2 -18 1 -18 7 0 6 8 8 18 5 15 -5 15 -4 -1
9 -18 15 -18 16 5 20 40 8 48 7 48 -2z"/>
<path d="M2330 2660 c0 -5 5 -10 11 -10 5 0 7 5 4 10 -3 6 -8 10 -11 10 -2 0
-4 -4 -4 -10z"/>
<path d="M2585 2070 c-3 -5 -5 -10 -3 -11 33 -8 38 -7 27 7 -14 17 -16 17 -24
4z"/>
<path d="M2742 1856 c10 -7 15 -16 11 -20 -4 -4 0 -4 10 0 9 3 17 10 17 16 0
5 -4 7 -9 3 -5 -3 -12 -1 -16 5 -3 5 -12 10 -18 10 -7 0 -4 -6 5 -14z"/>
<path d="M776 2906 c2 -6 13 -12 24 -12 13 0 16 4 10 10 -14 14 -39 16 -34 2z"/>
<path d="M1330 2710 c0 -5 5 -10 11 -10 5 0 7 5 4 10 -3 6 -8 10 -11 10 -2 0
-4 -4 -4 -10z"/>
<path d="M1750 2330 c0 -5 5 -10 11 -10 5 0 7 5 4 10 -3 6 -8 10 -11 10 -2 0
-4 -4 -4 -10z"/>
<path d="M243 2282 c10 -10 14 -22 10 -27 -5 -4 -2 -5 5 -1 11 6 10 12 -4 27
-9 10 -19 19 -22 19 -3 0 2 -8 11 -18z"/>
<path d="M2016 2087 c3 -10 9 -15 12 -12 3 3 0 11 -7 18 -10 9 -11 8 -5 -6z"/>
<path d="M2383 1785 c0 -8 4 -12 9 -9 5 3 6 10 3 15 -9 13 -12 11 -12 -6z"/>
<path d="M810 1739 c0 -5 9 -9 21 -9 13 0 18 -4 13 -12 -4 -7 -3 -8 5 -4 6 4
9 11 6 15 -7 13 -45 21 -45 10z"/>
<path d="M3126 1349 c3 -5 0 -17 -5 -28 -9 -16 -8 -18 7 -14 20 5 25 50 5 50
-6 0 -10 -4 -7 -8z"/>
<path d="M1554 1289 c-4 -7 -3 -9 4 -5 5 3 13 0 15 -6 4 -9 6 -10 6 -1 1 17
-16 25 -25 12z"/>
<path d="M1610 1234 c0 -8 5 -12 10 -9 6 4 8 11 5 16 -9 14 -15 11 -15 -7z"/>
<path d="M1810 941 c0 -5 7 -12 16 -15 14 -5 15 -4 4 9 -14 17 -20 19 -20 6z"/>
<path d="M1863 875 c0 -8 4 -12 9 -9 5 3 6 10 3 15 -9 13 -12 11 -12 -6z"/>
<path d="M3110 662 c0 -5 7 -9 15 -9 8 0 12 4 9 9 -3 4 -9 8 -15 8 -5 0 -9 -4
-9 -8z"/>
<path d="M2930 620 c0 -5 5 -10 11 -10 5 0 7 5 4 10 -3 6 -8 10 -11 10 -2 0
-4 -4 -4 -10z"/>
<path d="M2315 469 c-4 -6 -5 -12 -2 -15 2 -3 7 2 10 11 7 17 1 20 -8 4z"/>
<path d="M2150 421 c0 -6 4 -13 10 -16 6 -3 7 1 4 9 -7 18 -14 21 -14 7z"/>
<path d="M1587 319 c-9 -5 -22 -7 -29 -3 -8 5 -9 2 -4 -11 5 -15 4 -16 -9 -5
-11 9 -15 9 -15 1 0 -8 -8 -10 -20 -6 -11 3 -20 2 -20 -3 0 -5 -8 -9 -17 -9
-36 0 -43 -4 -58 -30 -11 -20 -14 -22 -10 -7 4 14 1 21 -9 21 -9 0 -13 -4 -11
-8 3 -4 -5 -7 -18 -7 -44 0 -62 -9 -59 -28 3 -14 1 -16 -10 -7 -8 7 -23 10
-33 8 -11 -2 -23 -4 -27 -4 -5 -1 -8 -8 -8 -16 0 -8 -5 -15 -11 -15 -5 0 -7 6
-3 13 6 9 5 9 -8 0 -8 -7 -19 -9 -23 -5 -5 4 -5 1 -1 -5 9 -17 -6 -17 -24 -1
-12 11 -12 10 -1 -4 11 -14 10 -17 -6 -17 -10 -1 -25 -1 -33 -2 -8 -1 -22 1
-30 3 -8 3 -11 3 -7 0 4 -2 3 -10 -4 -18 -7 -8 -9 -17 -5 -21 3 -3 6 -1 6 6 0
7 5 9 12 5 7 -4 8 -3 4 4 -10 16 7 15 23 -1 11 -10 12 -9 6 2 -6 10 -4 13 7 9
8 -4 29 2 47 13 17 10 31 15 31 11 0 -5 7 -9 14 -9 8 0 15 3 14 6 -2 20 3 31
12 26 6 -4 8 -11 5 -16 -4 -5 -1 -9 4 -9 6 0 11 5 11 11 0 5 5 7 10 4 6 -3 10
-1 10 6 0 9 3 9 14 0 12 -10 17 -8 26 8 11 21 40 29 40 11 0 -5 4 -10 10 -10
5 0 7 8 4 18 -5 16 -4 15 9 -1 15 -18 15 -18 22 2 3 12 11 19 16 15 5 -3 6
-11 3 -17 -5 -9 -3 -9 6 0 11 10 11 15 0 30 -12 15 -12 16 0 6 8 -7 22 -13 32
-13 10 0 18 -6 18 -12 0 -7 5 -5 11 5 6 9 14 15 20 12 5 -4 9 4 9 17 0 18 2
20 9 8 6 -8 7 -18 5 -22 -3 -4 2 -5 10 -2 9 3 16 14 16 24 0 10 7 21 16 24 14
5 15 4 5 -8 -17 -20 -4 -41 15 -25 9 8 11 16 4 29 -5 9 -6 20 -3 24 9 9 1 7
-20 -5z m-78 -55 c-6 -8 -15 -12 -18 -8 -3 4 0 9 7 11 6 3 9 10 6 15 -4 7 -2
8 5 4 9 -6 9 -11 0 -22z m-29 10 c0 -8 -19 -13 -24 -6 -3 5 1 9 9 9 8 0 15 -2
15 -3z m-140 -40 c0 -8 -19 -13 -24 -6 -3 5 1 9 9 9 8 0 15 -2 15 -3z m-50
-19 c0 -7 -30 -13 -34 -7 -3 4 4 9 15 9 10 1 19 0 19 -2z"/>
<path d="M1345 211 c-3 -5 -2 -12 3 -15 5 -3 9 1 9 9 0 17 -3 19 -12 6z"/>
<path d="M1016 143 c-6 -14 -5 -15 5 -6 7 7 10 15 7 18 -3 3 -9 -2 -12 -12z"/>
<path d="M1030 119 c0 -5 5 -7 10 -4 6 3 10 8 10 11 0 2 -4 4 -10 4 -5 0 -10
-5 -10 -11z"/>
<path d="M895 111 c-3 -5 -2 -12 3 -15 5 -3 9 1 9 9 0 17 -3 19 -12 6z"/>
</g>
</svg>
